<svg aria-hidden="true" style="position: absolute; width: 0; height: 0; overflow: hidden;" version="1.1" xmlns="http://www.w3.org/2000/svg" xmlns:xlink="http://www.w3.org/1999/xlink">
<defs>
<symbol id="svg_3" viewBox="0 0 32 32">
<title>baseline-create-24px</title>
<path d="M4 23v5h5l14.747-14.747-5-5-14.747 14.747zM27.613 9.387c0.52-0.52 0.52-1.36 0-1.88l-3.12-3.12c-0.52-0.52-1.36-0.52-1.88 0l-2.44 2.44 5 5 2.44-2.44z"></path>
</symbol>
<symbol id="svg_6" viewBox="0 0 32 32">
<title>baseline-important_devices-24px</title>
<path d="M30.667 14.68l-6.667-0.013c-0.733 0-1.333 0.6-1.333 1.333v12c0 0.733 0.6 1.333 1.333 1.333h6.667c0.733 0 1.333-0.6 1.333-1.333v-12c0-0.733-0.6-1.32-1.333-1.32zM30.667 26.667h-6.667v-9.333h6.667v9.333zM26.667 2.667h-24c-1.48 0-2.667 1.187-2.667 2.667v16c0 1.467 1.187 2.667 2.667 2.667h9.333v2.667h-2.667v2.667h10.667v-2.667h-2.667v-2.667h2.667v-2.667h-17.333v-16h24v6.667h2.667v-6.667c0-1.48-1.2-2.667-2.667-2.667zM15.96 12l-1.293-4-1.293 4h-4.040l3.293 2.347-1.253 3.88 3.293-2.4 3.293 2.4-1.253-3.88 3.293-2.347h-4.040z"></path>
</symbol>
<symbol id="svg_1" viewBox="0 0 32 32">
<title>baseline-list_alt-24px</title>
<path d="M25.333 6.667v18.667h-18.667v-18.667h18.667zM26.8 4h-21.6c-0.667 0-1.2 0.533-1.2 1.2v21.6c0 0.533 0.533 1.2 1.2 1.2h21.6c0.533 0 1.2-0.667 1.2-1.2v-21.6c0-0.667-0.667-1.2-1.2-1.2zM14.667 9.333h8v2.667h-8v-2.667zM14.667 14.667h8v2.667h-8v-2.667zM14.667 20h8v2.667h-8zM9.333 9.333h2.667v2.667h-2.667zM9.333 14.667h2.667v2.667h-2.667zM9.333 20h2.667v2.667h-2.667z"></path>
</symbol>
<symbol id="svg_2" viewBox="0 0 32 32" >
<title>baseline-pie_chart-24px</title>
<path d="M14.667 2.667v26.667c-6.76-0.667-12-6.387-12-13.333s5.24-12.667 12-13.333zM17.373 2.667v11.987h11.96c-0.627-6.32-5.653-11.36-11.96-11.987zM17.373 17.347v11.987c6.32-0.627 11.333-5.667 11.96-11.987h-11.96z"></path>
</symbol>
<symbol id="svg_4" viewBox="0 0 32 32">
<title>baseline-save_alt-24px</title>
<path d="M25.333 16v9.333h-18.667v-9.333h-2.667v9.333c0 1.467 1.2 2.667 2.667 2.667h18.667c1.467 0 2.667-1.2 2.667-2.667v-9.333h-2.667zM17.333 16.893l3.453-3.44 1.88 1.88-6.667 6.667-6.667-6.667 1.88-1.88 3.453 3.44v-12.893h2.667z"></path>
</symbol>
<symbol id="svg_8" viewBox="0 0 33 33">
<title>baseline-share-24px</title>
<path d="M24 21.44c-1.013 0-1.92 0.4-2.613 1.027l-9.507-5.533c0.067-0.307 0.12-0.613 0.12-0.933s-0.053-0.627-0.12-0.933l9.4-5.48c0.72 0.667 1.667 1.080 2.72 1.080 2.213 0 4-1.787 4-4s-1.787-4-4-4-4 1.787-4 4c0 0.32 0.053 0.627 0.12 0.933l-9.4 5.48c-0.72-0.667-1.667-1.080-2.72-1.080-2.213 0-4 1.787-4 4s1.787 4 4 4c1.053 0 2-0.413 2.72-1.080l9.493 5.547c-0.067 0.28-0.107 0.573-0.107 0.867 0 2.147 1.747 3.893 3.893 3.893s3.893-1.747 3.893-3.893-1.747-3.893-3.893-3.893z"></path>
</symbol>
<symbol id="svg_7" viewBox="0 0 32 32">
<title>baseline-star-24px</title>
<path d="M16 23.027l8.24 4.973-2.187-9.373 7.28-6.307-9.587-0.813-3.747-8.84-3.747 8.84-9.587 0.813 7.28 6.307-2.187 9.373z"></path>
</symbol>
<symbol id="svg_5" viewBox="0 0 32 32">
<title>baseline-verified_user-24px</title>
<path d="M16 1.333l-12 5.333v8c0 7.4 5.12 14.32 12 16 6.88-1.68 12-8.6 12-16v-8l-12-5.333zM13.333 22.667l-5.333-5.333 1.88-1.88 3.453 3.44 8.787-8.787 1.88 1.893-10.667 10.667z"></path>
</symbol>
</defs>
</svg>
